Patient4_TMGait_0pt6_01_left_43_GRF.mot
version=1
nRows=78
nColumns=19
inDegrees=no
endheader
time	F1x	F1y	F1z	M1x	M1y	M1z	F2x	F2y	F2z	M2x	M2y	M2z	EC1x	EC1y	EC1z	EC2x	EC2y	EC2z
52.27	5.6452	2.0355	2.1022	-0.94426	0.67903	-0.12213	-19.9514	725.6844	-56.9261	307.0563	66.2231	759.3523	-0.0592	0.0182	-0.0073	-0.0462	0.0165	0.9585
52.2823	3.7579	1.7895	1.5562	-0.80418	0.29365	0.41908	-21.3336	729.8658	-53.6676	308.2418	63.7154	761.8269	-0.0592	0.0182	-0.0073	-0.0462	0.0165	0.9585
52.2946	2.1422	1.5848	1.0499	-0.68063	-0.0030123	0.87667	-22.0847	735.8463	-51.1358	310.2256	61.5973	765.3687	-0.0592	0.0182	-0.0073	-0.0462	0.0165	0.9585
52.3069	0.88286	1.4419	0.63588	-0.58878	-0.21017	1.2505	-22.1089	743.7035	-49.4723	313.0782	59.9502	770.0679	-0.0592	0.0182	-0.0073	-0.0462	0.0165	0.9585
52.3191	0.003588	1.3586	0.33389	-0.53068	-0.33823	1.5281	-21.4317	753.1602	-48.6412	316.6991	58.7513	775.7123	-0.0592	0.0182	-0.0073	-0.0462	0.0165	0.9585
52.3314	-0.56629	1.3334	0.13406	-0.50471	-0.40696	1.7473	-20.1591	763.5905	-48.4412	320.8253	57.8603	781.7853	-0.0592	0.0182	-0.0073	-0.0462	0.0165	0.9585
52.3437	-0.88642	1.3353	0.01895	-0.49982	-0.43918	1.8908	-18.4298	774.0807	-48.6514	325.0612	57.132	787.5128	-0.0592	0.0182	-0.0073	-0.0462	0.0165	0.9585
52.356	-1.0531	1.3463	-0.038304	-0.50333	-0.4571	1.9687	-16.3649	783.5301	-49.0301	328.9243	56.3963	791.9433	-0.0592	0.0182	-0.0073	-0.0462	0.0165	0.9585
52.3683	-1.1287	1.3146	-0.059622	-0.49395	-0.47307	1.9442	-14.0737	790.7887	-49.4096	331.9054	55.5442	794.0917	-0.0592	0.0182	-0.0073	-0.0462	0.0165	0.9585
52.3806	-1.1861	1.1852	-0.062338	-0.44787	-0.49973	1.7814	-11.627	794.8489	-49.6496	333.5552	54.4798	793.1135	-0.0592	0.0182	-0.0073	-0.0462	0.0165	0.9585
52.3929	-1.2605	0.87863	-0.05745	-0.33321	-0.54053	1.4064	-9.0946	795.0315	-49.6856	333.5604	53.1741	788.4896	-0.0592	0.0182	-0.0073	-0.0462	0.0165	0.9585
52.4051	-1.3726	0.31297	-0.046398	-0.11953	-0.59708	0.74528	-6.532	791.0594	-49.4675	331.7828	51.5994	780.0757	-0.0592	0.0182	-0.0073	-0.0462	0.0165	0.9585
52.4174	-1.5057	-0.58438	-0.035081	0.21768	-0.65557	-0.28438	-4.0213	783.0895	-49.0329	328.2652	49.8201	768.1323	-0.0592	0.0182	-0.0073	-0.0462	0.0165	0.9585
52.4297	-1.6201	-1.8656	-0.027756	0.69449	-0.6968	-1.7549	-1.6351	771.7102	-48.4323	323.2373	47.9129	753.2812	-0.0592	0.0182	-0.0073	-0.0462	0.0165	0.9585
52.442	-1.6439	-3.5073	-0.037483	1.2997	-0.68326	-3.6515	0.57807	757.9307	-47.7775	317.11	46.0067	736.5107	-0.0592	0.0182	-0.0073	-0.0462	0.0165	0.9585
52.4543	-1.458	-5.3702	-0.065282	1.9802	-0.57079	-5.8255	2.6264	743.0273	-47.1846	310.4165	44.2111	719.0017	-0.0592	0.0182	-0.0073	-0.0462	0.0165	0.9585
52.4666	-0.92152	-7.1229	-0.12446	2.6135	-0.29402	-7.8986	4.5885	728.364	-46.8107	303.7323	42.6443	701.959	-0.0592	0.0182	-0.0073	-0.0462	0.0165	0.9585
52.4789	0.15917	-8.1993	-0.2154	2.9906	0.21932	-9.2345	6.6001	715.1947	-46.7905	297.5948	41.381	686.4499	-0.0592	0.0182	-0.0073	-0.0462	0.0165	0.9585
52.4911	1.9583	-7.708	-0.35256	2.7905	1.0495	-8.8113	8.7939	704.4654	-47.249	292.4209	40.4906	673.2651	-0.0592	0.0182	-0.0073	-0.0462	0.0165	0.9585
52.5034	4.6375	-4.4395	-0.53741	1.5774	2.2522	-5.2533	11.2619	696.6559	-48.2268	288.4386	39.9827	662.7778	-0.0592	0.0182	-0.0073	-0.0462	0.0165	0.9585
52.5157	8.2285	3.1554	-0.76906	-1.2013	3.8304	3.2175	14.0608	691.6775	-49.6803	285.6443	39.7966	654.8518	-0.0592	0.0182	-0.0073	-0.0462	0.0165	0.9585
52.528	12.5812	16.7955	-1.0186	-6.1599	5.6897	18.5663	17.2192	688.9244	-51.4469	283.8218	39.7704	648.9055	-0.0592	0.0182	-0.0073	-0.0462	0.0165	0.9585
52.5403	17.1858	38.1086	-1.2323	-13.8729	7.5773	42.6694	20.7121	687.3944	-53.2744	282.5856	39.6794	644.0213	-0.0592	0.0182	-0.0073	-0.0462	0.0165	0.9585
52.5526	21.0638	68.0906	-1.3126	-24.6836	9.019	76.6849	24.4409	685.795	-54.8759	281.4238	39.2974	639.0454	-0.0592	0.0182	-0.0073	-0.0462	0.0165	0.9585
52.5649	22.6151	106.3821	-1.0932	-38.4461	9.2521	120.2781	28.2272	682.6846	-55.9407	279.7555	38.4115	632.7332	-0.0592	0.0182	-0.0073	-0.0462	0.0165	0.9585
52.5771	20.304	151.0236	-0.29841	-54.4383	7.4441	171.3276	31.8472	676.622	-56.2052	276.9948	36.8817	623.8626	-0.0592	0.0182	-0.0073	-0.0462	0.0165	0.9585
52.5894	14.281	199.1924	1.3634	-71.6096	3.3313	226.6792	35.0758	666.4109	-55.4531	272.6446	34.6191	611.4431	-0.0592	0.0182	-0.0073	-0.0462	0.0165	0.9585
52.6017	6.1615	246.999	4.2001	-88.5274	-2.8448	281.7808	37.7548	651.157	-53.6169	266.3232	31.6497	594.7438	-0.0592	0.0182	-0.0073	-0.0462	0.0165	0.9585
52.614	-2.4042	289.9581	8.328	-103.6109	-10.5778	331.2062	39.8012	630.2586	-50.7532	257.7657	28.078	573.279	-0.0592	0.0182	-0.0073	-0.0462	0.0165	0.9585
52.6263	-10.1437	325.9716	13.1056	-116.1577	-18.6987	372.3235	41.2113	603.5287	-47.0193	246.8667	24.0628	546.9205	-0.0592	0.0182	-0.0073	-0.0462	0.0165	0.9585
52.6386	-16.5867	355.7154	17.8198	-126.4612	-26.2124	405.8455	42.0503	571.1624	-42.6694	233.6762	19.8065	515.8525	-0.0592	0.0182	-0.0073	-0.0462	0.0165	0.9585
52.6509	-21.6985	381.3293	21.8565	-135.3295	-32.4394	434.2115	42.4214	533.6549	-38.0049	218.3678	15.525	480.5026	-0.0592	0.0182	-0.0073	-0.0462	0.0165	0.9585
52.6631	-25.6071	405.0275	24.9981	-143.577	-37.1842	459.9876	42.3951	491.638	-33.268	201.1828	11.386	441.4113	-0.0592	0.0182	-0.0073	-0.0462	0.0165	0.9585
52.6754	-28.3312	428.5497	27.0876	-151.8331	-40.3183	485.1209	41.9015	445.8631	-28.6177	182.4223	7.5365	399.2496	-0.0592	0.0182	-0.0073	-0.0462	0.0165	0.9585
52.6877	-29.8774	453.0418	28.397	-160.4798	-42.1489	510.9123	40.7569	397.204	-24.1584	162.4519	4.1297	354.8126	-0.0592	0.0182	-0.0073	-0.0462	0.0165	0.9585
52.7	-30.2907	479.148	29.2181	-169.7087	-43.0379	538.0864	38.711	346.7489	-19.9758	141.7281	1.3334	309.0965	-0.0592	0.0182	-0.0073	-0.0462	0.0165	0.9585
52.7123	-29.766	507.0607	30.1333	-179.5324	-43.6818	566.9169	35.5939	295.8294	-16.1495	120.8077	-0.7146	263.2766	-0.0592	0.0182	-0.0073	-0.0462	0.0165	0.9585
52.7246	-28.6257	536.6462	31.5662	-189.8624	-44.6618	597.2897	31.4011	246.0171	-12.7653	100.343	-1.9349	218.7201	-0.0592	0.0182	-0.0073	-0.0462	0.0165	0.9585
52.7369	-27.2688	567.6573	33.8641	-200.5807	-46.4856	628.9719	26.3876	198.9732	-9.898	81.0236	-2.359	176.8355	-0.0592	0.0182	-0.0073	-0.0462	0.0165	0.9585
52.7491	-25.9767	599.8479	36.9818	-211.5989	-49.2122	661.6796	20.9952	156.2076	-7.5781	63.4729	-2.139	138.8882	-0.0592	0.0182	-0.0073	-0.0462	0.0165	0.9585
52.7614	-24.8972	632.8208	40.6191	-222.7976	-52.574	694.9825	15.732	118.7748	-5.7753	48.1299	-1.5119	105.7332	-0.0592	0.0182	-0.0073	-0.0462	0.0165	0.9585
52.7737	-24.056	665.8094	44.2977	-233.9443	-56.0704	728.0452	10.996	87.1705	-4.4126	35.2014	-0.71527	77.7606	-0.0592	0.0182	-0.0073	-0.0462	0.0165	0.9585
52.786	-23.432	697.6231	47.6609	-244.6474	-59.3023	759.6067	7.0157	61.3374	-3.383	24.6697	0.057147	54.8911	-0.0592	0.0182	-0.0073	-0.0462	0.0165	0.9585
52.7983	-22.9754	726.7897	50.5679	-254.4011	-62.0861	788.1292	3.8521	40.8912	-2.586	16.3717	0.68723	36.7828	-0.0592	0.0182	-0.0073	-0.0462	0.0165	0.9585
52.8106	-22.6514	751.8709	53.0044	-262.6981	-64.3845	812.1395	1.4863	25.2884	-1.9221	10.0722	1.093	22.9542	-0.0592	0.0182	-0.0073	-0.0462	0.0165	0.9585
52.8229	-22.4251	771.7584	55.0281	-269.1418	-66.2425	830.5374	-0.15042	13.9376	-1.3497	5.5171	1.2676	12.8895	-0.0592	0.0182	-0.0073	-0.0462	0.0165	0.9585
52.8351	-22.2456	785.8517	56.6406	-273.5171	-67.6536	842.7614	-1.1324	6.2476	-0.85268	2.4532	1.2339	6.0671	-0.0592	0.0182	-0.0073	-0.0462	0.0165	0.9585
52.8474	-22.0433	794.1062	57.9032	-275.8051	-68.6621	848.827	-1.6	1.571	-0.46065	0.60728	1.0752	1.9203	-0.0592	0.0182	-0.0073	-0.0462	0.0165	0.9585
52.8597	-21.7357	796.9365	58.8695	-276.1545	-69.302	849.2024	-1.7253	-0.82328	-0.18201	-0.3229	0.86869	-0.19201	-0.0592	0.0182	-0.0073	-0.0462	0.0165	0.9585
52.872	-21.2374	795.11	59.6703	-274.8373	-69.6808	844.7006	-1.6423	-1.6442	-0.0072616	-0.62798	0.66653	-0.89517	-0.0592	0.0182	-0.0073	-0.0462	0.0165	0.9585
52.8843	-20.4642	789.6302	60.3725	-272.2143	-69.845	836.351	-1.4621	-1.4912	0.089729	-0.55113	0.49408	-0.71872	-0.0592	0.0182	-0.0073	-0.0462	0.0165	0.9585
52.8966	-19.3677	781.597	61.0644	-268.683	-69.8718	825.2788	-1.2517	-0.83097	0.13327	-0.2774	0.36195	-0.081513	-0.0592	0.0182	-0.0073	-0.0462	0.0165	0.9585
52.9089	-17.9418	772.0551	61.7523	-264.6266	-69.7702	812.5427	-1.0531	0.021594	0.14642	0.068597	0.26972	0.73711	-0.0592	0.0182	-0.0073	-0.0462	0.0165	0.9585
52.9211	-16.2462	761.8782	62.4642	-260.369	-69.5891	799.052	-0.8863	0.87177	0.14378	0.41098	0.21802	1.5588	-0.0592	0.0182	-0.0073	-0.0462	0.0165	0.9585
52.9334	-14.3779	751.7371	63.1457	-256.1654	-69.3083	785.4883	-0.76097	1.6219	0.13441	0.71315	0.20517	2.2922	-0.0592	0.0182	-0.0073	-0.0462	0.0165	0.9585
52.9457	-12.4746	742.1391	63.7381	-252.2118	-68.913	772.3677	-0.67411	2.2381	0.11994	0.96332	0.21923	2.9045	-0.0592	0.0182	-0.0073	-0.0462	0.0165	0.9585
52.958	-10.6583	733.4589	64.146	-248.6611	-68.3464	760.0545	-0.62664	2.7157	0.098492	1.1595	0.25135	3.3912	-0.0592	0.0182	-0.0073	-0.0462	0.0165	0.9585
52.9703	-9.0361	725.9888	64.3223	-245.6312	-67.5913	748.8322	-0.62178	3.0628	0.075062	1.303	0.28818	3.755	-0.0592	0.0182	-0.0073	-0.0462	0.0165	0.9585
52.9826	-7.6614	719.9646	64.2327	-243.2162	-66.6266	738.9149	-0.65148	3.2803	0.046275	1.3922	0.33234	3.9842	-0.0592	0.0182	-0.0073	-0.0462	0.0165	0.9585
52.9949	-6.5254	715.59	63.8784	-241.4905	-65.4526	730.4805	-0.72255	3.3444	0.013621	1.417	0.38956	4.0405	-0.0592	0.0182	-0.0073	-0.0462	0.0165	0.9585
53.0071	-5.5274	713.0408	63.2508	-240.5145	-64.0363	723.6693	-0.82607	3.2035	-0.029661	1.3554	0.469	3.8492	-0.0592	0.0182	-0.0073	-0.0462	0.0165	0.9585
53.0194	-4.477	712.4634	62.3319	-240.331	-62.3089	718.5893	-0.95945	2.7828	-0.086689	1.1744	0.57807	3.3246	-0.0592	0.0182	-0.0073	-0.0462	0.0165	0.9585
53.0317	-3.15	713.9318	61.0929	-240.9506	-60.1774	715.2921	-1.1089	1.9705	-0.15907	0.82855	0.71711	2.3361	-0.0592	0.0182	-0.0073	-0.0462	0.0165	0.9585
53.044	-1.3361	717.3907	59.5232	-242.3258	-57.569	713.7215	-1.2541	0.66814	-0.25176	0.27558	0.87917	0.77117	-0.0592	0.0182	-0.0073	-0.0462	0.0165	0.9585
53.0563	1.0912	722.5777	57.6845	-244.3251	-54.5017	713.6604	-1.3522	-1.2084	-0.3578	-0.51905	1.0347	-1.4681	-0.0592	0.0182	-0.0073	-0.0462	0.0165	0.9585
53.0686	4.1636	728.9683	55.7211	-246.7146	-51.099	714.6726	-1.3428	-3.659	-0.46569	-1.5575	1.1413	-4.3777	-0.0592	0.0182	-0.0073	-0.0462	0.0165	0.9585
53.0809	7.8176	735.7744	53.851	-249.1666	-47.5818	716.0974	-1.1278	-6.5531	-0.54761	-2.7857	1.127	-7.8059	-0.0592	0.0182	-0.0073	-0.0462	0.0165	0.9585
53.0931	11.9355	742.0591	52.2558	-251.3098	-44.1546	717.1392	-0.5936	-9.5357	-0.56429	-4.053	0.90045	-11.3366	-0.0592	0.0182	-0.0073	-0.0462	0.0165	0.9585
53.1054	16.4067	746.8964	51.0423	-252.7975	-40.9553	717.0035	0.39264	-11.9266	-0.45331	-5.0666	0.33906	-14.1753	-0.0592	0.0182	-0.0073	-0.0462	0.0165	0.9585
53.1177	21.1473	749.5416	50.2052	-253.3685	-38.012	715.0397	1.9471	-12.61	-0.14089	-5.3457	-0.6893	-15.0233	-0.0592	0.0182	-0.0073	-0.0462	0.0165	0.9585
53.13	26.1326	749.5683	49.701	-252.889	-35.3079	710.8539	4.1375	-9.954	0.46931	-4.1897	-2.3199	-11.9657	-0.0592	0.0182	-0.0073	-0.0462	0.0165	0.9585
53.1423	31.3706	746.9373	49.4714	-251.3649	-32.8053	704.3866	6.9341	-1.787	1.4755	-0.66852	-4.6486	-2.4366	-0.0592	0.0182	-0.0073	-0.0462	0.0165	0.9585
53.1546	36.9034	741.8325	49.5006	-248.8832	-30.4917	695.7727	10.1149	14.4857	2.9632	6.3259	-7.6695	16.6553	-0.0592	0.0182	-0.0073	-0.0462	0.0165	0.9585
53.1669	42.7357	734.3945	49.7368	-245.5285	-28.3258	685.1281	13.1921	41.559	4.9686	17.9406	-11.199	48.5369	-0.0592	0.0182	-0.0073	-0.0462	0.0165	0.9585
53.1791	48.769	724.3798	50.0673	-241.2685	-26.243	672.2547	15.2706	81.6252	7.4181	35.0994	-14.7553	95.8618	-0.0592	0.0182	-0.0073	-0.0462	0.0165	0.9585
53.1914	54.7486	710.9366	50.2511	-235.8782	-24.1117	656.4287	14.9672	135.3513	10.0582	58.0665	-17.4343	159.5098	-0.0592	0.0182	-0.0073	-0.0462	0.0165	0.9585
53.2037	60.263	692.5968	49.9827	-228.9288	-21.7954	636.4072	10.4149	200.4903	12.3569	85.8514	-17.8214	236.9573	-0.0592	0.0182	-0.0073	-0.0462	0.0165	0.9585
53.216	64.798	667.5401	48.9454	-219.8722	-19.1797	610.6368	0.21248	270.8042	13.4296	115.7319	-14.3098	321.0067	-0.0592	0.0182	-0.0073	-0.0462	0.0165	0.9585
